<mxfile host="app.diagrams.net" agent="Mozilla/5.0 (Windows NT 10.0; Win64; x64) AppleWebKit/537.36 (KHTML, like Gecko) Chrome/136.0.0.0 Safari/537.36 Edg/136.0.0.0" version="27.0.9">
  <diagram name="Strona-1" id="xqY9L8ijfIPU3Z0NwXGj">
    <mxGraphModel dx="1673" dy="570" grid="0" gridSize="10" guides="1" tooltips="1" connect="1" arrows="1" fold="1" page="0" pageScale="1" pageWidth="827" pageHeight="1169" math="0" shadow="0">
      <root>
        <mxCell id="0" />
        <mxCell id="1" parent="0" />
        <mxCell id="rQ2df4vWdalVbfbEbj8P-9" style="edgeStyle=none;curved=1;rounded=0;orthogonalLoop=1;jettySize=auto;html=1;exitX=0.5;exitY=0.5;exitDx=0;exitDy=0;exitPerimeter=0;fontSize=12;startSize=8;endSize=8;" parent="1" source="rQ2df4vWdalVbfbEbj8P-1" edge="1" target="NiANpctDEAF9QTa-MXs2-1">
          <mxGeometry relative="1" as="geometry">
            <mxPoint x="340" y="179" as="targetPoint" />
          </mxGeometry>
        </mxCell>
        <mxCell id="rQ2df4vWdalVbfbEbj8P-1" value="Użytkownik" style="shape=umlActor;verticalLabelPosition=bottom;verticalAlign=top;html=1;outlineConnect=0;" parent="1" vertex="1">
          <mxGeometry x="117" y="200" width="30" height="60" as="geometry" />
        </mxCell>
        <mxCell id="rQ2df4vWdalVbfbEbj8P-2" value="Administrator" style="shape=umlActor;verticalLabelPosition=bottom;verticalAlign=top;html=1;outlineConnect=0;" parent="1" vertex="1">
          <mxGeometry x="672" y="190" width="36" height="66" as="geometry" />
        </mxCell>
        <mxCell id="rQ2df4vWdalVbfbEbj8P-11" value="" style="endArrow=classic;html=1;rounded=0;fontSize=12;startSize=8;endSize=8;curved=1;exitX=0.5;exitY=0.5;exitDx=0;exitDy=0;exitPerimeter=0;entryX=0.02;entryY=0.298;entryDx=0;entryDy=0;entryPerimeter=0;" parent="1" source="rQ2df4vWdalVbfbEbj8P-1" edge="1" target="NiANpctDEAF9QTa-MXs2-2">
          <mxGeometry width="50" height="50" relative="1" as="geometry">
            <mxPoint x="381" y="415" as="sourcePoint" />
            <mxPoint x="349" y="235" as="targetPoint" />
          </mxGeometry>
        </mxCell>
        <mxCell id="rQ2df4vWdalVbfbEbj8P-14" value="" style="endArrow=classic;html=1;rounded=0;fontSize=12;startSize=8;endSize=8;curved=1;exitX=0.5;exitY=0.5;exitDx=0;exitDy=0;exitPerimeter=0;" parent="1" source="rQ2df4vWdalVbfbEbj8P-1" edge="1" target="NiANpctDEAF9QTa-MXs2-3">
          <mxGeometry width="50" height="50" relative="1" as="geometry">
            <mxPoint x="197" y="275" as="sourcePoint" />
            <mxPoint x="346" y="281" as="targetPoint" />
          </mxGeometry>
        </mxCell>
        <mxCell id="rQ2df4vWdalVbfbEbj8P-16" value="" style="endArrow=classic;html=1;rounded=0;fontSize=12;startSize=8;endSize=8;curved=1;exitX=0.5;exitY=0.5;exitDx=0;exitDy=0;exitPerimeter=0;entryX=0.927;entryY=0.198;entryDx=0;entryDy=0;entryPerimeter=0;" parent="1" source="rQ2df4vWdalVbfbEbj8P-2" edge="1" target="NiANpctDEAF9QTa-MXs2-1">
          <mxGeometry width="50" height="50" relative="1" as="geometry">
            <mxPoint x="381" y="415" as="sourcePoint" />
            <mxPoint x="344" y="381" as="targetPoint" />
          </mxGeometry>
        </mxCell>
        <mxCell id="rQ2df4vWdalVbfbEbj8P-18" value="" style="endArrow=classic;html=1;rounded=0;fontSize=12;startSize=8;endSize=8;curved=1;exitX=0.5;exitY=0.5;exitDx=0;exitDy=0;exitPerimeter=0;entryX=0.927;entryY=0.188;entryDx=0;entryDy=0;entryPerimeter=0;" parent="1" source="rQ2df4vWdalVbfbEbj8P-2" edge="1" target="NiANpctDEAF9QTa-MXs2-2">
          <mxGeometry width="50" height="50" relative="1" as="geometry">
            <mxPoint x="381" y="415" as="sourcePoint" />
            <mxPoint x="509" y="240" as="targetPoint" />
          </mxGeometry>
        </mxCell>
        <mxCell id="rQ2df4vWdalVbfbEbj8P-20" value="" style="endArrow=classic;html=1;rounded=0;fontSize=12;startSize=8;endSize=8;curved=1;exitX=0.5;exitY=0.5;exitDx=0;exitDy=0;exitPerimeter=0;entryX=0.927;entryY=0.23;entryDx=0;entryDy=0;entryPerimeter=0;" parent="1" source="rQ2df4vWdalVbfbEbj8P-2" edge="1" target="NiANpctDEAF9QTa-MXs2-3">
          <mxGeometry width="50" height="50" relative="1" as="geometry">
            <mxPoint x="381" y="415" as="sourcePoint" />
            <mxPoint x="553" y="316" as="targetPoint" />
          </mxGeometry>
        </mxCell>
        <mxCell id="NiANpctDEAF9QTa-MXs2-1" value="Wypełnianie ankiet" style="ellipse;whiteSpace=wrap;html=1;" vertex="1" parent="1">
          <mxGeometry x="367" y="135" width="120" height="80" as="geometry" />
        </mxCell>
        <mxCell id="NiANpctDEAF9QTa-MXs2-2" value="Statystyki ankiet" style="ellipse;whiteSpace=wrap;html=1;" vertex="1" parent="1">
          <mxGeometry x="367" y="235" width="120" height="80" as="geometry" />
        </mxCell>
        <mxCell id="NiANpctDEAF9QTa-MXs2-3" value="Logowanie" style="ellipse;whiteSpace=wrap;html=1;" vertex="1" parent="1">
          <mxGeometry x="367" y="342" width="120" height="80" as="geometry" />
        </mxCell>
        <mxCell id="NiANpctDEAF9QTa-MXs2-4" value="Tworzenie ankiet" style="ellipse;whiteSpace=wrap;html=1;" vertex="1" parent="1">
          <mxGeometry x="812" y="149" width="120" height="80" as="geometry" />
        </mxCell>
        <mxCell id="NiANpctDEAF9QTa-MXs2-5" value="Usuwanie ankiet" style="ellipse;whiteSpace=wrap;html=1;" vertex="1" parent="1">
          <mxGeometry x="809" y="262" width="120" height="80" as="geometry" />
        </mxCell>
        <mxCell id="NiANpctDEAF9QTa-MXs2-7" value="" style="endArrow=classic;html=1;rounded=0;fontSize=12;startSize=8;endSize=8;curved=1;exitX=0.5;exitY=0.5;exitDx=0;exitDy=0;exitPerimeter=0;entryX=0;entryY=0.5;entryDx=0;entryDy=0;" edge="1" parent="1" source="rQ2df4vWdalVbfbEbj8P-2" target="NiANpctDEAF9QTa-MXs2-4">
          <mxGeometry width="50" height="50" relative="1" as="geometry">
            <mxPoint x="825" y="266" as="sourcePoint" />
            <mxPoint x="655" y="334" as="targetPoint" />
          </mxGeometry>
        </mxCell>
        <mxCell id="NiANpctDEAF9QTa-MXs2-8" value="" style="endArrow=classic;html=1;rounded=0;fontSize=12;startSize=8;endSize=8;curved=1;entryX=0;entryY=0;entryDx=0;entryDy=0;exitX=0.5;exitY=0.5;exitDx=0;exitDy=0;exitPerimeter=0;" edge="1" parent="1" source="rQ2df4vWdalVbfbEbj8P-2" target="NiANpctDEAF9QTa-MXs2-5">
          <mxGeometry width="50" height="50" relative="1" as="geometry">
            <mxPoint x="683" y="201" as="sourcePoint" />
            <mxPoint x="929" y="231" as="targetPoint" />
          </mxGeometry>
        </mxCell>
        <mxCell id="NiANpctDEAF9QTa-MXs2-9" value="Ocena ankiety" style="ellipse;whiteSpace=wrap;html=1;" vertex="1" parent="1">
          <mxGeometry x="-76" y="248" width="120" height="80" as="geometry" />
        </mxCell>
        <mxCell id="NiANpctDEAF9QTa-MXs2-11" value="" style="endArrow=classic;html=1;rounded=0;exitX=0.5;exitY=0.5;exitDx=0;exitDy=0;exitPerimeter=0;" edge="1" parent="1" source="rQ2df4vWdalVbfbEbj8P-1" target="NiANpctDEAF9QTa-MXs2-9">
          <mxGeometry width="50" height="50" relative="1" as="geometry">
            <mxPoint x="468" y="383" as="sourcePoint" />
            <mxPoint x="518" y="333" as="targetPoint" />
          </mxGeometry>
        </mxCell>
      </root>
    </mxGraphModel>
  </diagram>
</mxfile>
